<svg xmlns="http://www.w3.org/2000/svg" width="120" height="120" viewBox="0 0 120 120">
  <rect width="120" height="120" rx="28" fill="#C6F24E"/>
  <g fill="#0A0C0D">
    <polygon points="28,84 60,99 60,106 28,91" fill-opacity="0.30"/>
    <polygon points="92,84 60,99 60,106 92,91" fill-opacity="0.42"/>
    <polygon points="60,69 92,84 60,99 28,84" fill-opacity="0.55"/>
    <polygon points="28,58 60,73 60,80 28,65" fill-opacity="0.40"/>
    <polygon points="92,58 60,73 60,80 92,65" fill-opacity="0.55"/>
    <polygon points="60,43 92,58 60,73 28,58" fill-opacity="0.78"/>
    <polygon points="28,32 60,47 60,54 28,39" fill-opacity="0.55"/>
    <polygon points="92,32 60,47 60,54 92,39" fill-opacity="0.72"/>
    <polygon points="60,17 92,32 60,47 28,32"/>
  </g>
</svg>
